<?xml version="1.0" encoding="UTF-8"?><svg id="Layer_2" xmlns="http://www.w3.org/2000/svg" viewBox="0 0 165.25 102.39"><defs><style>.cls-1{fill:#026649;}.cls-2{fill:#5fbc5b;}</style></defs><g id="Layer_1-2"><g><path class="cls-2" d="M120.63,15.02h0V6.54h-3.1V15.02h0c0,18.95-15.42,34.37-34.37,34.37S48.79,33.97,48.79,15.02h0V6.54h-3.1V15.02h0c0,18.95-15.42,34.37-34.37,34.37v3.1c18.95,0,34.37,15.42,34.37,34.37h0v8.48h3.1v-8.48h0c0-9.2,3.55-17.83,9.99-24.3,6.46-6.49,15.12-10.06,24.38-10.06,18.95,0,34.37,15.42,34.37,34.37h0v8.48h3.1v-8.48h0c0-18.95,15.42-34.37,34.37-34.37v-3.1c-18.96,0-34.37-15.43-34.37-34.38ZM47.25,64.7c-2.41-6.32-7.44-11.35-13.76-13.76,6.32-2.41,11.35-7.44,13.76-13.76,2.41,6.32,7.44,11.35,13.76,13.76-6.32,2.41-11.35,7.44-13.76,13.76Zm71.83,0c-2.41-6.32-7.44-11.35-13.76-13.76,6.32-2.41,11.35-7.44,13.76-13.76,2.41,6.32,7.44,11.35,13.76,13.76-6.32,2.41-11.35,7.44-13.76,13.76Z"/><g><polygon class="cls-2" points="89.55 97.19 76.69 81.65 76.63 81.57 73.64 81.57 73.64 101.89 76.77 101.89 76.77 86.27 89.69 101.89 92.68 101.89 92.68 81.57 89.55 81.57 89.55 97.19"/><path class="cls-2" d="M17.22,82.33c-1.7-.84-3.68-1.26-5.89-1.26s-4.32,.45-6.02,1.35c-1.71,.9-3.04,2.16-3.94,3.76-.91,1.59-1.37,3.46-1.37,5.55s.48,4.1,1.44,5.71c.95,1.61,2.3,2.85,4,3.69,1.69,.84,3.68,1.26,5.89,1.26s4.31-.45,6.02-1.35,3.04-2.16,3.95-3.76c.91-1.6,1.37-3.46,1.37-5.55s-.48-4.1-1.44-5.71-2.31-2.85-4.01-3.69Zm.02,15.13c-1.41,1.37-3.4,2.06-5.91,2.06s-4.53-.69-5.93-2.04c-1.4-1.36-2.11-3.29-2.11-5.74s.71-4.36,2.12-5.73,3.4-2.06,5.91-2.06,4.53,.69,5.93,2.04c1.4,1.36,2.11,3.29,2.11,5.74,.01,2.44-.71,4.37-2.12,5.73Z"/><polygon class="cls-2" points="149.53 92.84 161.96 92.84 161.96 89.99 149.53 89.99 149.53 84.42 162.6 84.42 162.6 81.57 146.35 81.57 146.35 101.89 162.68 101.89 163.23 99.05 149.53 99.05 149.53 92.84"/><polygon class="cls-1" points="91.47 16.7 79.32 16.69 79.32 .5 74.86 .5 74.86 20.4 90.91 20.4 91.47 16.7"/><path class="cls-1" d="M15.15,16.82c-.83,.44-2.06,.65-3.69,.65-1.82,0-3.19-.3-4.1-.91-.91-.6-1.46-1.56-1.64-2.86H1.23c.15,1.64,.61,2.98,1.38,4.04,.77,1.06,1.89,1.85,3.34,2.37,1.46,.52,3.29,.78,5.5,.78,3.05,0,5.39-.53,7.04-1.6,1.64-1.07,2.47-2.57,2.47-4.5,0-1.71-.57-3.05-1.7-4.03-1.13-.98-2.92-1.66-5.35-2.05l-4.1-.64c-1.36-.2-2.29-.47-2.8-.81-.51-.32-.76-.84-.76-1.55s.42-1.31,1.25-1.7c.84-.39,2.04-.59,3.62-.59,1.39,0,2.48,.21,3.26,.63,.78,.42,1.37,1.1,1.76,2.05l4.32-.5c-.46-1.93-1.44-3.35-2.93-4.25-1.48-.9-3.58-1.35-6.29-1.35-1.97,0-3.67,.24-5.09,.71-1.42,.47-2.5,1.15-3.25,2.02-.74,.87-1.11,1.91-1.11,3.09,0,1.77,.63,3.14,1.88,4.11,1.25,.98,3.24,1.65,5.95,2.02l3.34,.47c1.19,.17,2.06,.45,2.61,.84s.82,.93,.82,1.62c0,.86-.41,1.5-1.24,1.94Z"/><polygon class="cls-1" points="149.2 13.3 152.68 10.37 160.09 20.4 165.25 20.4 155.83 7.75 164.41 .5 159.01 .5 149.2 8.75 149.2 .5 144.74 .5 144.74 20.4 149.2 20.4 149.2 13.3"/></g></g></g></svg>