<?xml version="1.0" encoding="UTF-8"?><svg id="Layer_2" xmlns="http://www.w3.org/2000/svg" viewBox="0 0 122.25 200.82"><defs><style>.cls-1{fill:#fcd33d;}.cls-2{fill:#ee4465;}.cls-3{fill:#54c0a1;}.cls-4{fill:#697abb;}.cls-5{fill:#02ae66;}</style></defs><g id="Layer_1-2"><path class="cls-3" d="M51.09,123.01l36.85-81.1c.82-1.8.02-3.92-1.78-4.73L5.06.33C2.16-.99-.88,1.86.24,4.84l44.25,117.95c1.12,2.98,5.28,3.12,6.6.22Z"/><path class="cls-5" d="M56.56,142.19l63.38-23.78c1.85-.69,2.78-2.75,2.09-4.6l-23.78-63.38c-1.12-2.98-5.28-3.12-6.6-.22l-39.6,87.15c-1.32,2.9,1.53,5.94,4.51,4.82Z"/><path class="cls-1" d="M52.32,157.62l42.88,19.48c1.8.82,3.92.02,4.73-1.78l19.48-42.88c1.32-2.9-1.53-5.94-4.51-4.82l-62.37,23.4c-2.98,1.12-3.12,5.28-.22,6.6Z"/><path class="cls-4" d="M38.84,165.54l12.37,32.96c.69,1.85,2.75,2.78,4.6,2.09l32.96-12.37c2.98-1.12,3.12-5.28.22-6.6l-45.33-20.6c-2.9-1.32-5.94,1.53-4.82,4.51Z"/><path class="cls-2" d="M23.18,161.2l-8.9,19.58c-.82,1.8-.02,3.92,1.78,4.73l19.58,8.9c2.9,1.32,5.94-1.53,4.82-4.51l-10.68-28.48c-1.12-2.98-5.28-3.12-6.6-.22Z"/><path class="cls-4" d="M13.15,153.87l-8.09,3.04c-1.85.69-2.78,2.75-2.09,4.6l3.04,8.09c1.12,2.98,5.28,3.12,6.6.22l5.06-11.13c1.32-2.9-1.53-5.94-4.51-4.82Z"/><path class="cls-1" d="M18.21,137.93l-3.2-1.46c-1.58-.72-3.44-.02-4.15,1.56l-1.46,3.2c-1.16,2.54,1.34,5.22,3.96,4.24l4.66-1.75c2.62-.98,2.74-4.64.2-5.79Z"/><path class="cls-5" d="M26.9,129.69h0c-.69-1.85-2.75-2.78-4.6-2.09h0c-2.98,1.12-3.12,5.28-.22,6.6h0c2.9,1.32,5.94-1.53,4.82-4.51Z"/><path class="cls-3" d="M44.86,144.97c0-5.04-4.08-9.12-9.12-9.12s-9.12,4.08-9.12,9.12,4.08,9.12,9.12,9.12,9.12-4.08,9.12-9.12ZM32.16,144.97c0-1.98,1.6-3.58,3.58-3.58s3.58,1.6,3.58,3.58-1.6,3.58-3.58,3.58-3.58-1.6-3.58-3.58Z"/></g></svg>