<?xml version="1.0" encoding="UTF-8"?><svg id="Layer_2" xmlns="http://www.w3.org/2000/svg" viewBox="0 0 143.68 88.81"><defs><style>.cls-1{fill:#fff;}</style></defs><g id="Layer_1-2"><path class="cls-1" d="M109.31,8.48h0V0h-3.1V8.48h0c0,18.95-15.42,34.37-34.37,34.37S37.47,27.43,37.47,8.48h0V0h-3.1V8.48h0c0,18.95-15.42,34.37-34.37,34.37v3.1c18.95,0,34.37,15.42,34.37,34.37h0v8.48h3.1v-8.48h0c0-9.2,3.55-17.83,9.99-24.3,6.46-6.49,15.12-10.06,24.38-10.06,18.95,0,34.37,15.42,34.37,34.37h0v8.48h3.1v-8.48h0c0-18.95,15.42-34.37,34.37-34.37v-3.1c-18.96,0-34.37-15.43-34.37-34.38ZM35.93,58.16c-2.41-6.32-7.44-11.35-13.76-13.76,6.32-2.41,11.35-7.44,13.76-13.76,2.41,6.32,7.44,11.35,13.76,13.76-6.32,2.41-11.35,7.44-13.76,13.76Zm71.83,0c-2.41-6.32-7.44-11.35-13.76-13.76,6.32-2.41,11.35-7.44,13.76-13.76,2.41,6.32,7.44,11.35,13.76,13.76-6.32,2.41-11.35,7.44-13.76,13.76Z"/></g></svg>