<?xml version="1.0" encoding="UTF-8"?><svg id="Layer_2" xmlns="http://www.w3.org/2000/svg" viewBox="0 0 68.21 101.53"><defs><style>.cls-1{fill:#006548;}.cls-2{fill:#5dbc5b;}</style></defs><g id="Layer_1-2"><g><g><polygon class="cls-2" points="65.16 44.7 65.16 54.36 57.21 44.75 57.17 44.7 55.33 44.7 55.33 57.26 57.26 57.26 57.26 47.61 65.25 57.26 67.1 57.26 67.1 44.7 65.16 44.7"/><path class="cls-1" d="M1.21,57.26v-12.3H3.96v10.01s7.51,0,7.51,0l-.34,2.29H1.21Z"/></g><g><path class="cls-2" d="M67.33,3.06c-.59-.99-1.42-1.76-2.47-2.28C63.8,.26,62.58,0,61.21,0s-2.67,.28-3.72,.83c-1.06,.55-1.88,1.34-2.44,2.32-.56,.98-.84,2.14-.84,3.43,0,1.35,.3,2.54,.89,3.53,.59,.99,1.42,1.76,2.47,2.28,1.05,.52,2.27,.78,3.64,.78s2.67-.28,3.72-.83c1.06-.55,1.88-1.34,2.44-2.32,.56-.99,.84-2.14,.84-3.43s-.3-2.54-.89-3.53Zm-1.15,3.53c0,1.51-.44,2.7-1.31,3.54-.87,.84-2.1,1.27-3.66,1.27s-2.8-.42-3.66-1.26c-.87-.84-1.3-2.03-1.3-3.55s.44-2.7,1.31-3.54c.87-.84,2.1-1.27,3.66-1.27s2.8,.42,3.66,1.26c.86,.84,1.3,2.03,1.3,3.55Z"/><path class="cls-1" d="M9.46,4.03c-.24-.59-.6-1.01-1.08-1.27-.48-.26-1.15-.39-2.02-.39-.98,0-1.72,.12-2.24,.36-.52,.24-.78,.59-.78,1.05s.16,.76,.47,.96c.32,.21,.89,.37,1.73,.5l2.53,.4c1.5,.24,2.61,.66,3.31,1.27,.7,.6,1.05,1.43,1.05,2.49,0,1.19-.51,2.12-1.52,2.78-1.02,.66-2.47,.99-4.35,.99-1.37,0-2.5-.16-3.4-.48-.9-.32-1.59-.81-2.07-1.46-.48-.65-.76-1.49-.85-2.5H3.01c.11,.8,.45,1.39,1.02,1.77,.56,.37,1.41,.56,2.53,.56,1.01,0,1.77-.13,2.28-.4,.51-.27,.77-.67,.77-1.2,0-.42-.17-.76-.51-1-.34-.24-.88-.41-1.61-.52l-2.07-.29c-1.68-.23-2.9-.65-3.68-1.25-.78-.6-1.16-1.45-1.16-2.54,0-.73,.23-1.37,.69-1.91,.46-.54,1.13-.96,2.01-1.25s1.93-.44,3.14-.44c1.68,0,2.97,.28,3.89,.84,.92,.56,1.52,1.43,1.81,2.63l-2.67,.31Z"/></g><g><polygon class="cls-2" points="57.96 99.77 57.96 95.93 65.64 95.93 65.64 94.17 57.96 94.17 57.96 90.73 66.04 90.73 66.04 88.97 56 88.97 56 101.53 66.09 101.53 66.43 99.77 57.96 99.77"/><path class="cls-1" d="M9.49,101.53l-4.58-6.2-2.15,1.81v4.39H0v-12.3H2.76v5.1s6.06-5.1,6.06-5.1h3.34s-5.31,4.48-5.31,4.48l5.82,7.82h-3.19Z"/></g><g><rect class="cls-2" x="8" y="70.56" width="1.91" height="5.24" transform="translate(-64.22 82.14) rotate(-90)"/><rect class="cls-2" x="57.63" y="70.56" width="1.91" height="5.24" transform="translate(-14.59 131.77) rotate(-90)"/><rect class="cls-2" x="8" y="26.17" width="1.91" height="5.24" transform="translate(-19.83 37.75) rotate(-90)"/><rect class="cls-2" x="57.63" y="26.17" width="1.91" height="5.24" transform="translate(29.81 87.38) rotate(-90)"/><path class="cls-2" d="M20.06,73.18h0Zm13.72,8.5c-1.49-3.9-4.6-7.01-8.5-8.5,3.9-1.49,7.01-4.6,8.5-8.5,1.49,3.9,4.6,7.01,8.5,8.5-3.9,1.49-7.01,4.6-8.5,8.5Zm13.72-8.5h0Zm-13.72,13.72h0s0,0,0,0h0ZM20.06,28.79h0Zm13.72-8.5c1.49,3.9,4.6,7.01,8.5,8.5-3.9,1.49-7.01,4.6-8.5,8.5-1.49-3.9-4.6-7.01-8.5-8.5,3.9-1.49,7.01-4.6,8.5-8.5Zm13.72,8.5h0Zm-13.72,66.59h.96c0-11.71,9.53-21.24,21.24-21.24h0v-1.91s0,0,0,0c-11.71,0-21.24-9.53-21.24-21.24,0-5.72,2.21-11.07,6.22-15.06,4-3.98,9.33-6.17,15.02-6.17h0v-1.91s0,0,0,0c-11.71,0-21.24-9.53-21.24-21.24h-.96s0,0,0,0h-.96c0,11.71-9.53,21.24-21.24,21.24h0v1.91s0,0,0,0c11.71,0,21.24,9.53,21.24,21.24,0,11.71-9.53,21.24-21.24,21.24h0v1.91s0,0,0,0c11.71,0,21.24,9.53,21.24,21.24h.96s0,0,0,0Z"/></g></g></g></svg>